<svg width="82" height="35" fill="none" xmlns="http://www.w3.org/2000/svg"><path d="M.874 31.831c2.324-.984 4.423-2.686 6.296-5.106 1.873-2.42 3.807-5.797 5.804-10.131 2.01-4.348 3.445-7.28 4.306-8.798.985-1.6 1.983-2.4 2.994-2.4.643 0 1.142.226 1.497.677.37.451.554 1.032.554 1.743 0 .711-.246 3.658-.738 8.84-.492 5.18-.738 8.503-.738 9.966 0 1.45.061 2.393.184 2.83.137.438.356.656.656.656.397 0 .82-.423 1.272-1.271 1.531-2.994 3.767-10.158 6.706-21.492l2.44.287c-.505 2.187-1.189 4.744-2.05 7.67-.848 2.925-1.62 5.29-2.318 7.096a83.45 83.45 0 01-2.297 5.372c-.82 1.778-1.695 3.18-2.625 4.205-.916 1.025-1.811 1.538-2.686 1.538-.861 0-1.497-.322-1.907-.964-.397-.656-.595-1.798-.595-3.425 0-1.64.232-5.086.697-10.336.479-5.25.725-8.107.738-8.572.014-.465-.102-.697-.348-.697-.315 0-.684.43-1.108 1.291l-.943 1.949c-.588 1.312-.97 2.235-1.148 2.768-1.573 3.528-2.974 6.44-4.204 8.737a40.31 40.31 0 01-4.225 6.378c-.56.67-1.36 1.36-2.4 2.07-1.039.698-2.002 1.224-2.891 1.58l-.923-2.46zm31.213-3.404c0-2.57 1.367-5.1 4.101-7.588 2.735-2.502 5.503-3.753 8.306-3.753 1.846 0 2.769.725 2.769 2.174 0 1.517-.978 3.049-2.933 4.593-1.941 1.532-4.676 2.926-8.203 4.184a3.175 3.175 0 001.169 1.518c.533.369 1.08.553 1.64.553 1.204-.013 2.844-.704 4.922-2.07l.964.758c-.861 1.203-2.05 2.208-3.568 3.015-1.518.792-2.994 1.189-4.43 1.189-1.422 0-2.57-.417-3.445-1.251-.861-.848-1.292-1.955-1.292-3.322zm3.835-1.64c2.27-.78 4.21-1.758 5.824-2.933 1.627-1.176 2.44-2.256 2.44-3.24 0-.37-.143-.691-.43-.965-.274-.287-.588-.43-.944-.43-1.312 0-2.734.82-4.265 2.46-1.531 1.641-2.406 3.344-2.625 5.107zm11.997 3.568c0-1.956 1.285-6.173 3.855-12.654C54.358 11.207 57.011 5.5 59.731.577l1.846 1.005a225.505 225.505 0 00-7.444 15.853c-2.201 5.25-3.302 9.023-3.302 11.32 0 1.312.485 1.969 1.456 1.969.793 0 1.58-.588 2.358-1.764l.882.718c-.957 1.49-1.777 2.563-2.46 3.22-.684.656-1.45.984-2.297.984-.835 0-1.518-.335-2.051-1.005-.534-.67-.8-1.51-.8-2.523zm11.402 0c0-1.956 1.285-6.173 3.856-12.654C65.76 11.207 68.413 5.5 71.134.577l1.846 1.005a225.415 225.415 0 00-7.445 15.853c-2.201 5.25-3.302 9.023-3.302 11.32 0 1.312.486 1.969 1.457 1.969.792 0 1.579-.588 2.358-1.764l.882.718c-.957 1.49-1.778 2.563-2.461 3.22-.684.656-1.45.984-2.297.984-.834 0-1.518-.335-2.05-1.005-.534-.67-.8-1.51-.8-2.523zm12.407-.677c0-2.721 1.122-6.262 3.364-10.623.506-.957.8-1.518.882-1.682l1.804 1.087c-.588 1.066-1.312 2.762-2.174 5.086-.847 2.324-1.271 3.814-1.271 4.47 0 .657.137 1.129.41 1.416.287.273.63.41 1.026.41h.02c.766 0 1.812-.752 3.138-2.256l.84.718a10.596 10.596 0 01-2.665 3.302c-1.108.902-2.113 1.353-3.015 1.353-1.572 0-2.359-1.094-2.359-3.281zm5.394-16.345c0-.725.192-1.32.574-1.784a1.884 1.884 0 011.518-.718c.615 0 1.114.185 1.497.554.396.355.595.827.595 1.415 0 .588-.171 1.135-.513 1.64-.328.506-.773.76-1.333.76-1.559 0-2.338-.623-2.338-1.867z" fill="#594539"/></svg>